<svg width="35" height="76" viewBox="0 0 35 76" fill="none" xmlns="http://www.w3.org/2000/svg">
<path d="M34.3382 27.5251C34.3382 30.9581 34.3382 34.3885 34.3382 37.8215C34.3399 41.986 32.8236 46.0086 30.0726 49.1375C27.3216 52.2664 23.5242 54.2875 19.3902 54.823C9.95679 56.083 1.21269 49.2936 0.13531 39.8644C0.0506597 39.1175 0.00804231 38.3665 0.00765907 37.6149C0.00255302 30.9088 0 24.2086 0 17.5144C0 8.79686 5.76473 1.88248 14.3582 0.265467C23.2938 -1.40511 32.4847 5.00428 34.0165 13.9973C34.2037 15.1314 34.3018 16.2784 34.3101 17.4277C34.3611 20.7995 34.3382 24.1636 34.3382 27.5251ZM2.29772 27.4818H2.39984C2.39984 31.4044 2.17262 35.3449 2.4458 39.2497C3.06363 48.0209 11.7439 54.2594 20.3374 52.3185C23.6638 51.5916 26.6403 49.7474 28.7705 47.0935C30.9006 44.4397 32.0557 41.1364 32.043 37.7347C32.0651 30.9181 32.0651 24.1007 32.043 17.2824C32.0319 16.4136 31.9517 15.5471 31.803 14.691C30.4576 6.45296 22.2573 0.892887 14.108 2.68078C10.7653 3.38902 7.76772 5.22341 5.61759 7.8766C3.46746 10.5298 2.29538 13.8406 2.29772 17.2543C2.2773 20.6694 2.29772 24.0718 2.29772 27.4818Z" fill="white"/>
<path d="M29.689 65.7417C29.4822 66.0605 29.3494 66.4354 29.0839 66.6522C25.411 69.6533 21.7261 72.6408 18.0293 75.6146C17.4013 76.1247 16.9341 76.1247 16.3111 75.6146C12.6178 72.6357 8.9295 69.6508 5.24634 66.6599C5.11844 66.5659 5.01068 66.4472 4.9294 66.3109C4.84812 66.1747 4.79497 66.0235 4.77308 65.8664C4.75119 65.7093 4.761 65.5494 4.80194 65.3961C4.84288 65.2429 4.91412 65.0993 5.01146 64.974C5.4659 64.418 6.13479 64.4001 6.81645 64.951C9.10226 66.7959 11.3847 68.6433 13.6637 70.4933C14.6849 71.3196 15.7061 72.1383 16.7273 72.9851C17.0541 73.2605 17.2736 73.2733 17.6183 72.9851C20.893 70.3105 24.1762 67.6469 27.4679 64.9944C28.1648 64.4307 28.7444 64.3746 29.2192 64.8745C29.4071 65.1455 29.5647 65.4363 29.689 65.7417Z" fill="white"/>
<path d="M19.5014 15.701C19.5014 16.6167 19.5167 17.5323 19.5014 18.4505C19.4733 19.8354 18.4801 20.8199 17.1347 20.8046C16.828 20.8047 16.5243 20.7434 16.2416 20.6244C15.959 20.5054 15.703 20.331 15.4889 20.1116C15.2747 19.8922 15.1067 19.6322 14.9947 19.3469C14.8828 19.0616 14.8291 18.7568 14.837 18.4505C14.82 16.5937 14.82 14.7369 14.837 12.8802C14.8497 11.4851 15.8403 10.4878 17.1679 10.4878C18.4955 10.4878 19.4656 11.4876 19.5014 12.8802C19.5141 13.8188 19.5039 14.7599 19.5014 15.701Z" fill="white"/>
</svg>
