<svg width="50" height="50" viewBox="0 0 50 50" fill="none" xmlns="http://www.w3.org/2000/svg">
<rect width="50" height="50" fill="#EC0928"/>
<path d="M37 22.4824C34.6408 22.4881 32.3395 21.7371 30.4211 20.3353V30.1116C30.4205 31.9222 29.8783 33.6895 28.8671 35.1772C27.856 36.6648 26.424 37.8019 24.7627 38.4363C23.1013 39.0707 21.2899 39.1723 19.5704 38.7274C17.851 38.2826 16.3057 37.3125 15.1409 35.9469C13.9762 34.5812 13.2477 32.8852 13.0528 31.0855C12.8578 29.2858 13.2058 27.4682 14.0501 25.8758C14.8944 24.2835 16.1949 22.9922 17.7775 22.1746C19.3602 21.357 21.1497 21.0522 22.9066 21.3008V26.2179C22.1026 25.9598 21.2393 25.9675 20.4399 26.2401C19.6405 26.5127 18.9459 27.0362 18.4553 27.7358C17.9647 28.4354 17.7033 29.2754 17.7082 30.1357C17.7132 30.996 17.9843 31.8328 18.483 32.5264C18.9816 33.2201 19.6821 33.7352 20.4846 33.9981C21.2871 34.2611 22.1505 34.2585 22.9515 33.9907C23.7524 33.7229 24.45 33.2036 24.9446 32.5069C25.4392 31.8103 25.7055 30.9719 25.7055 30.1116V11H30.4211C30.4179 11.4065 30.4512 11.8125 30.5208 12.2127C30.6847 13.1063 31.0254 13.9563 31.5221 14.7108C32.0188 15.4653 32.6611 16.1084 33.4097 16.6009C34.4747 17.3197 35.7233 17.7028 37 17.7026V22.4824Z" fill="white"/>
</svg>
