<svg width="50" height="50" viewBox="0 0 50 50" fill="none" xmlns="http://www.w3.org/2000/svg">
<rect width="50" height="50" fill="#EC0928"/>
<path fill-rule="evenodd" clip-rule="evenodd" d="M35.5858 16.5744C36.7666 16.8905 37.6946 17.8184 38.0106 18.9992C38.5818 21.1373 38.5841 25.6008 38.5841 25.6008C38.5841 25.6008 38.5841 30.0644 38.0106 32.2025C37.6946 33.3832 36.7666 34.3112 35.5858 34.6272C33.4478 35.2007 24.8706 35.2007 24.8706 35.2007C24.8706 35.2007 16.2936 35.2007 14.1555 34.6272C12.9747 34.3112 12.0468 33.3832 11.7307 32.2025C11.1572 30.0644 11.1572 25.6008 11.1572 25.6008C11.1572 25.6008 11.1572 21.1373 11.7307 18.9992C12.0468 17.8184 12.9747 16.8905 14.1555 16.5744C16.2936 16.001 24.8706 16.001 24.8706 16.001C24.8706 16.001 33.4478 16.001 35.5858 16.5744ZM29.2507 25.6012L22.1253 29.7147V21.4875L29.2507 25.6012Z" fill="white"/>
</svg>
